<svg xmlns="http://www.w3.org/2000/svg" id="mainLogo" viewBox="0.00 0.00 300.00 210.00 " width="100%" height="100%">
  <defs />
  <g data-refid="icon" fill="#40a4dd" data-box="119.43 92.42 61.15 75.60 " transform="matrix(0.7879021879635884 0 0 0.7879021879635884 110.60489360742892 90.45279641450571)">
    <svg xmlns="http://www.w3.org/2000/svg" xmlns:xlink="http://www.w3.org/1999/xlink" version="1.1" x="0px" y="0px" viewBox="0 0 100 100" enable-background="new 0 0 100 100" xml:space="preserve" width="100" height="100" id="FLDSRC_ICON">
      <path d="M85.897,49.011h-0.148c-1.605,0-2.907-1.301-2.907-2.907c0-1.606,1.301-2.907,2.907-2.907s2.907-1.301,2.907-2.907  c0-1.605-1.301-2.907-2.907-2.907H74.036c-1.605,0-2.907-1.301-2.907-2.907s1.301-2.907,2.907-2.907h0.847  c1.605,0,2.907-1.301,2.907-2.907c0-1.606-1.301-2.907-2.907-2.907h-3.219c-1.606,0-2.907-1.301-2.907-2.907  c0-1.605,1.301-2.907,2.907-2.907h2.372c1.606,0,2.907-1.301,2.907-2.907s-1.301-2.907-2.907-2.907H60.912  c-1.605,0-2.907-1.301-2.907-2.907s1.301-2.907,2.907-2.907s2.907-1.301,2.907-2.907c0-1.605-1.301-2.907-2.907-2.907H38.689  c-1.605,0-2.907,1.301-2.907,2.907c0,1.606,1.301,2.907,2.907,2.907h-0.11c1.605,0,2.907,1.301,2.907,2.907  s-1.301,2.907-2.907,2.907H26.012c-1.606,0-2.907,1.301-2.907,2.907s1.301,2.907,2.907,2.907h10.372  c1.605,0,2.907,1.301,2.907,2.907c0,1.606-1.301,2.907-2.907,2.907H23.482c-1.605,0-2.907,1.301-2.907,2.907  c0,1.605,1.301,2.907,2.907,2.907h10.883c1.605,0,2.907,1.301,2.907,2.907s-1.301,2.907-2.907,2.907h-7.676  c-1.605,0-2.907,1.301-2.907,2.907c0,1.606,1.301,2.907,2.907,2.907h-1.252c1.605,0,2.907,1.301,2.907,2.907  c0,1.605-1.301,2.907-2.907,2.907H14.103c-1.606,0-2.907,1.301-2.907,2.907s1.301,2.907,2.907,2.907h9.679  c1.605,0,2.907,1.301,2.907,2.907c0,1.606-1.301,2.907-2.907,2.907h-0.53c-1.605,0-2.907,1.301-2.907,2.907  c0,1.605,1.301,2.907,2.907,2.907h8.715c1.605,0,2.907,1.301,2.907,2.907s-1.301,2.907-2.907,2.907h-14.38  c-1.605,0-2.907,1.301-2.907,2.907s1.301,2.907,2.907,2.907h29.46l-1.018,20.369h7.99l-1.018-20.369h29.166  c1.605,0,2.907-1.301,2.907-2.907s-1.301-2.907-2.907-2.907h-5.224c-1.606,0-2.907-1.301-2.907-2.907s1.301-2.907,2.907-2.907h0.847  c1.605,0,2.907-1.301,2.907-2.907c0-1.606-1.301-2.907-2.907-2.907h-9.032c-1.605,0-2.907-1.301-2.907-2.907  c0-1.605,1.301-2.907,2.907-2.907h17.139c1.605,0,2.907-1.301,2.907-2.907S87.502,49.011,85.897,49.011z" />
    </svg>
  </g>
  <path data-refid="title" fill="#0c0b0b" d="M 28.6-0.4L 28.6-0.4L 28.92-0.4L 28.92 0L 19.92 0L 19.92-0.4L 20.28-0.4Q 21.12-0.4  21.54-0.94Q 21.96-1.48  21.96-1.96Q 21.96-2.44  21.8-2.92L 21.8-2.92L 19.24-9.72L 8.44-9.72L 5.76-2.88Q 5.6-2.4  5.6-1.94Q 5.6-1.48  6.02-0.94Q 6.44-0.4  7.28-0.4L 7.28-0.4L 7.64-0.4L 7.64 0L-0.4 0L-0.4-0.4L-0.04-0.4Q 0.96-0.4  1.92-1.04Q 2.88-1.68  3.48-2.92L 3.48-2.92L 12.52-24.44Q 14-27.68  14-28.56L 14-28.56L 14.36-28.56L 25.08-2.92Q 25.64-1.68  26.6-1.04Q 27.56-0.4  28.6-0.4ZM 13.96-23.76L 8.92-10.92L 18.76-10.92L 13.96-23.76ZM 62.72-0.4L 62.72-0.4L 63.31999999999999-0.4L 63.31999999999999 0L 54.99999999999999 0L 54.99999999999999-0.36L 55.599999999999994-0.36Q 56.19999999999999-0.36  56.66-0.82Q 57.11999999999999-1.28  57.03999999999999-1.92L 57.03999999999999-1.92L 54.959999999999994-18.4L 47.39999999999999-3.52Q 46.279999999999994-1.08  45.99999999999999 0.56L 45.99999999999999 0.56L 45.599999999999994 0.56L 35.959999999999994-18.04L 34.16-1.92Q 34.07999999999999-1.32  34.53999999999999-0.84Q 34.99999999999999-0.36  35.63999999999999-0.36L 35.63999999999999-0.36L 36.199999999999996-0.36L 36.199999999999996 0L 28.799999999999994 0L 28.799999999999994-0.4L 29.399999999999995-0.4Q 30.839999999999993-0.4  31.639999999999993-1.44L 31.639999999999993-1.44Q 32.03999999999999-1.96  32.11999999999999-2.68L 32.11999999999999-2.68L 35.239999999999995-24.56L 35.63999999999999-24.56L 46.19999999999999-4.24L 56.39999999999999-24.56L 56.75999999999999-24.56L 59.99999999999999-2.6Q 60.16-1.6  60.91999999999999-1Q 61.67999999999999-0.4  62.72-0.4ZM 65.8-0.4L 66.36-0.4Q 67.44-0.4  68.24-1.04Q 69.03999999999999-1.68  69.03999999999999-2.56L 69.03999999999999-2.56L 69.03999999999999-21.44Q 69.03999999999999-22.32  68.24-22.96Q 67.44-23.6  66.32-23.6L 66.32-23.6L 65.8-23.6L 65.8-24L 74.83999999999999-24L 74.83999999999999-23.6L 74.32-23.6Q 73.24-23.6  72.46-23Q 71.67999999999999-22.4  71.6-21.52L 71.6-21.52L 71.6-2.52Q 71.63999999999999-1.64  72.44-1.02Q 73.24-0.4  74.32-0.4L 74.32-0.4L 74.83999999999999-0.4L 74.88 0L 65.8 0L 65.8-0.4ZM 102.19999999999999-0.4L 102.19999999999999 0L 100.72 0Q 96.8 0  94.83999999999999-2.28L 94.83999999999999-2.28L 86.03999999999999-11.92L 94.63999999999999-22.04Q 95.07999999999998-22.6  94.77999999999999-23.1Q 94.47999999999999-23.6  93.75999999999999-23.6L 93.75999999999999-23.6L 93.39999999999999-23.6L 93.39999999999999-24L 101.55999999999999-24L 101.55999999999999-23.6L 101.39999999999999-23.6Q 98.96-23.6  97.52-22.16L 97.52-22.16L 88.8-12.84L 98.72-2.04Q 99.44-1.16  100.19999999999999-0.8Q 100.96-0.44  102.19999999999999-0.4L 102.19999999999999-0.4ZM 87-0.4L 87-0.4L 87.44-0.4L 87.44 0L 79.24 0L 79.24-0.4L 79.72-0.4Q 80.67999999999999-0.4  81.35999999999999-1.04Q 82.03999999999999-1.68  82.08-2.56L 82.08-2.56L 82.08-21.44Q 82.03999999999999-22.32  81.35999999999999-22.96Q 80.67999999999999-23.6  79.72-23.6L 79.72-23.6L 79.24-23.6L 79.24-24L 87.44-24L 87.44-23.6L 86.96-23.6Q 85.67999999999999-23.6  84.96-22.56L 84.96-22.56Q 84.63999999999999-22.08  84.63999999999999-21.48L 84.63999999999999-21.48L 84.63999999999999-2.52Q 84.63999999999999-1.64  85.33999999999999-1.02Q 86.03999999999999-0.4  87-0.4ZM 127.16-0.4L 127.16 0L 125.68 0Q 121.76 0  119.8-2.28L 119.8-2.28L 111-11.92L 119.6-22.04Q 120.03999999999999-22.6  119.74-23.1Q 119.44-23.6  118.72-23.6L 118.72-23.6L 118.36-23.6L 118.36-24L 126.52-24L 126.52-23.6L 126.36-23.6Q 123.92-23.6  122.48-22.16L 122.48-22.16L 113.76-12.84L 123.68-2.04Q 124.4-1.16  125.16-0.8Q 125.92-0.44  127.16-0.4L 127.16-0.4ZM 111.96000000000001-0.4L 111.96000000000001-0.4L 112.4-0.4L 112.4 0L 104.2 0L 104.2-0.4L 104.68-0.4Q 105.64-0.4  106.32-1.04Q 107-1.68  107.04-2.56L 107.04-2.56L 107.04-21.44Q 107-22.32  106.32-22.96Q 105.64-23.6  104.68-23.6L 104.68-23.6L 104.2-23.6L 104.2-24L 112.4-24L 112.4-23.6L 111.92-23.6Q 110.64-23.6  109.92-22.56L 109.92-22.56Q 109.6-22.08  109.6-21.48L 109.6-21.48L 109.6-2.52Q 109.6-1.64  110.3-1.02Q 111-0.4  111.96000000000001-0.4ZM 153.36-0.4L 153.36-0.4L 153.68-0.4L 153.68 0L 145.48000000000002 0L 145.48000000000002-0.4L 145.8-0.4Q 146.56000000000003-0.4  146.96000000000004-0.92Q 147.36-1.44  147.36-1.9Q 147.36-2.36  147.20000000000002-2.8L 147.20000000000002-2.8L 145.00000000000003-8.12L 134.88000000000002-8.12L 132.68000000000004-2.92Q 132.48000000000002-2.4  132.48000000000002-1.94Q 132.48000000000002-1.48  132.88000000000002-0.94Q 133.28000000000003-0.4  134.08-0.4L 134.08-0.4L 134.40000000000003-0.4L 134.40000000000003 0L 126.76000000000002 0L 126.76000000000002-0.4L 127.08000000000003-0.4Q 127.92000000000002-0.4  128.78000000000003-0.98Q 129.64000000000001-1.56  130.20000000000002-2.72L 130.20000000000002-2.72Q 138.96000000000004-21.44  139.32000000000002-22.32L 139.32000000000002-22.32Q 140.00000000000003-24  140.04000000000002-24.56L 140.04000000000002-24.56L 140.40000000000003-24.56L 150.28000000000003-2.72Q 151.44000000000003-0.4  153.36-0.4ZM 140.04000000000002-20.28L 135.40000000000003-9.32L 144.52-9.32L 140.04000000000002-20.28ZM 187.04000000000002-23.76L 187.04000000000002-24.44Q 187.04000000000002-25.4  186.36-26.1Q 185.68-26.8  184.76000000000002-26.84L 184.76000000000002-26.84L 177.16000000000003-26.84L 177.16000000000003-2.88Q 177.20000000000002-1.84  177.94000000000003-1.12Q 178.68-0.4  179.72000000000003-0.4L 179.72000000000003-0.4L 180.24-0.4L 180.24 0L 171.48000000000002 0L 171.48000000000002-0.4L 172.00000000000003-0.4Q 173.04000000000002-0.4  173.78000000000003-1.12Q 174.52-1.84  174.56000000000003-2.84L 174.56000000000003-2.84L 174.56000000000003-26.84L 166.96-26.84Q 166.00000000000003-26.8  165.34000000000003-26.1Q 164.68-25.4  164.68-24.44L 164.68-24.44L 164.68-23.76L 164.28000000000003-23.72L 164.28000000000003-28.76Q 164.88000000000002-28.52  166.36-28.28Q 167.84000000000003-28.04  169.08-28.04L 169.08-28.04L 182.60000000000002-28.04Q 184.56-28.04  185.86-28.34Q 187.16000000000003-28.64  187.44000000000003-28.76L 187.44000000000003-28.76L 187.44000000000003-23.72L 187.04000000000002-23.76ZM 214.79999999999998-24L 214.79999999999998-23.6L 214.2-23.6Q 213.12-23.6  212.56-22.76L 212.56-22.76Q 212.32-22.4  212.27999999999997-21.92L 212.27999999999997-21.92L 212.27999999999997-8.44Q 212.27999999999997-4.28  209.62-1.86Q 206.95999999999998 0.56  202.32 0.56Q 197.67999999999998 0.56  195-1.84Q 192.32-4.24  192.32-8.4L 192.32-8.4L 192.32-21.88Q 192.32-22.6  191.76-23.1Q 191.2-23.6  190.39999999999998-23.6L 190.39999999999998-23.6L 189.79999999999998-23.6L 189.79999999999998-24L 197.39999999999998-24L 197.39999999999998-23.6L 196.79999999999998-23.6Q 196-23.6  195.44-23.1Q 194.88-22.6  194.88-21.88L 194.88-21.88L 194.88-8.88Q 194.88-5  196.85999999999999-2.76Q 198.83999999999997-0.52  202.45999999999998-0.52Q 206.07999999999998-0.52  208.26-2.64Q 210.44-4.76  210.44-8.44L 210.44-8.44L 210.44-21.88Q 210.39999999999998-22.64  209.85999999999999-23.12Q 209.32-23.6  208.51999999999998-23.6L 208.51999999999998-23.6L 207.92-23.6L 207.92-24L 214.79999999999998-24ZM 236.32-22.84L 229.07999999999998-22.84L 229.07999999999998-2.52Q 229.11999999999998-1.28  230.28-0.68L 230.28-0.68Q 230.79999999999998-0.4  231.44-0.4L 231.44-0.4L 231.88-0.4L 231.88 0L 223.64 0L 223.64-0.4L 224.11999999999998-0.4Q 225.07999999999998-0.4  225.76-1.04Q 226.44-1.68  226.48-2.56L 226.48-2.56L 226.48-22.84L 219.23999999999998-22.84Q 218.32-22.84  217.78-22.24Q 217.23999999999998-21.64  217.23999999999998-20.8L 217.23999999999998-20.8L 217.23999999999998-20.16L 216.79999999999998-20.16L 216.79999999999998-24.68Q 217.6-24.36  219.06-24.2Q 220.51999999999998-24.04  221.23999999999998-24.04L 221.23999999999998-24.04L 234.27999999999997-24.04Q 237.16-24.04  238.76-24.68L 238.76-24.68L 238.76-20.16L 238.32-20.16L 238.32-20.8Q 238.32-21.64  237.76-22.24Q 237.2-22.84  236.32-22.84L 236.32-22.84ZM 246.83999999999997-22.98Q 249.92-24.56  253.61999999999998-24.56Q 257.32-24.56  260.4-22.98Q 263.47999999999996-21.4  265.29999999999995-18.52Q 267.12-15.64  267.12-12Q 267.12-8.36  265.29999999999995-5.48Q 263.47999999999996-2.6  260.4-1.02Q 257.32 0.56  254.07999999999998 0.56Q 250.83999999999997 0.56  248.35999999999999-0.36Q 245.87999999999997-1.28  244.05999999999997-2.92Q 242.23999999999998-4.56  241.17999999999998-6.92Q 240.11999999999998-9.28  240.11999999999998-12.46Q 240.11999999999998-15.64  241.93999999999997-18.52Q 243.75999999999996-21.4  246.83999999999997-22.98ZM 246.09999999999997-3.82Q 249.11999999999998-0.64  253.59999999999997-0.64Q 258.08-0.64  261.12-3.82Q 264.15999999999997-7  264.15999999999997-12Q 264.15999999999997-17  261.12-20.18Q 258.08-23.36  253.59999999999997-23.36Q 249.11999999999998-23.36  246.09999999999997-20.18Q 243.07999999999998-17  243.07999999999998-12Q 243.07999999999998-7  246.09999999999997-3.82ZM 278.16-22.76L 278.16-22.76L 276.04-22.76L 276.04-2.56Q 276.08000000000004-1.32  277.16-0.68L 277.16-0.68Q 277.68-0.4  278.32-0.4L 278.32-0.4L 278.84000000000003-0.4L 278.88 0L 270.68 0L 270.68-0.4L 271.24-0.4Q 272.16-0.4  272.82-1.02Q 273.48-1.64  273.48-2.52L 273.48-2.52L 273.48-21.52Q 273.48-22.4  272.82-23Q 272.16-23.6  271.24-23.6L 271.24-23.6L 270.68-23.6L 270.68-24L 280.72-24Q 284.48-24  286.66-22.28Q 288.84000000000003-20.56  288.84000000000003-17.76Q 288.84000000000003-14.96  287.08000000000004-13.08Q 285.32-11.2  282.6-10.92L 282.6-10.92Q 283.88-10.36  285.68-7.8L 285.68-7.8Q 285.64000000000004-7.8  287.06-6.04Q 288.48-4.28  289.34000000000003-3.3Q 290.20000000000005-2.32  290.76-1.8L 290.76-1.8Q 292.24-0.4  294.16-0.4L 294.16-0.4L 294.16 0L 292.92 0Q 289.76 0  287.96000000000004-1.24L 287.96000000000004-1.24Q 286.6-2.16  285.48-3.52L 285.48-3.52Q 285.24-3.84  283.46000000000004-6.34Q 281.68-8.84  281.56-9L 281.56-9Q 279.40000000000003-11.68  277.52000000000004-11.68L 277.52000000000004-11.68L 277.52000000000004-12.08Q 282.20000000000005-12.08  283.16-12.56L 283.16-12.56Q 284.48-13.24  284.96000000000004-14L 284.96000000000004-14Q 285.96000000000004-15.6  285.96000000000004-17.52L 285.96000000000004-17.52Q 285.96000000000004-19.96  284.52000000000004-21.28Q 283.08000000000004-22.6  280.64000000000004-22.72L 280.64000000000004-22.72Q 279.56-22.76  278.16-22.76ZM 295.76-0.4L 296.32-0.4Q 297.4-0.4  298.2-1.04Q 299-1.68  299-2.56L 299-2.56L 299-21.44Q 299-22.32  298.2-22.96Q 297.4-23.6  296.28000000000003-23.6L 296.28000000000003-23.6L 295.76-23.6L 295.76-24L 304.8-24L 304.8-23.6L 304.28000000000003-23.6Q 303.2-23.6  302.42-23Q 301.64-22.4  301.56-21.52L 301.56-21.52L 301.56-2.52Q 301.6-1.64  302.4-1.02Q 303.2-0.4  304.28000000000003-0.4L 304.28000000000003-0.4L 304.8-0.4L 304.84 0L 295.76 0L 295.76-0.4ZM 336.76000000000005-23.6L 336.08000000000004-23.6Q 335.20000000000005-23.6  334.56000000000006-23.02Q 333.9200000000001-22.44  333.88000000000005-21.6L 333.88000000000005-21.6L 333.88000000000005-4.56Q 333.88000000000005-2.24  334.1600000000001-0.16L 334.1600000000001-0.16L 334.24000000000007 0.56L 333.88000000000005 0.56L 313.08000000000004-19.16L 313.08000000000004-2.48Q 313.08000000000004-1.6  313.7200000000001-1Q 314.36000000000007-0.4  315.28000000000003-0.4L 315.28000000000003-0.4L 315.96000000000004-0.4L 315.96000000000004 0L 308.40000000000003 0L 308.40000000000003-0.4L 309.08000000000004-0.4Q 310.00000000000006-0.4  310.64000000000004-1Q 311.28000000000003-1.6  311.28000000000003-2.48L 311.28000000000003-2.48L 311.28000000000003-19.6Q 311.28000000000003-22.04  311.00000000000006-23.96L 311.00000000000006-23.96L 310.9200000000001-24.6L 311.36000000000007-24.56L 332.12000000000006-5L 332.12000000000006-21.6Q 332.0400000000001-22.44  331.40000000000003-23.02Q 330.76000000000005-23.6  329.88000000000005-23.6L 329.88000000000005-23.6L 329.20000000000005-23.6L 329.20000000000005-24L 336.76000000000005-24L 336.76000000000005-23.6ZM 353.08000000000004 0.56Q 347.12000000000006 0.52  343.54-2.86Q 339.96000000000004-6.24  339.96000000000004-12.02Q 339.96000000000004-17.8  343.54-21.18Q 347.12000000000006-24.56  352.78000000000003-24.56Q 358.44000000000005-24.56  362.40000000000003-22.16L 362.40000000000003-22.16L 363.28000000000003-16.48L 362.92-16.48Q 362.08000000000004-20  359.66-21.68Q 357.24-23.36  352.82000000000005-23.36Q 348.40000000000003-23.36  345.62000000000006-20.3Q 342.84000000000003-17.24  342.84000000000003-12Q 342.84000000000003-6.76  345.64000000000004-3.7Q 348.44000000000005-0.64  353.38000000000005-0.64Q 358.32000000000005-0.64  361.88000000000005-4.12L 361.88000000000005-4.12L 361.92-9.44Q 361.96000000000004-10.16  361.46000000000004-10.58Q 360.96000000000004-11  360.08000000000004-11L 360.08000000000004-11L 359.52000000000004-11L 359.52000000000004-11.4L 366.84000000000003-11.4L 366.84000000000003-11L 366.28000000000003-11Q 364.48-11  364.48-9.4L 364.48-9.4L 364.48-4.6Q 362.8-2.52  359.86-0.98Q 356.92 0.56  353.08000000000004 0.56L 353.08000000000004 0.56Z" data-box="15.00 186.02 270.00 21.56 " transform="matrix(0.7352140485236486 0 0 0.7352140485236487 15.294085623791677 207.16651836464536)" />
</svg>