<svg xmlns="http://www.w3.org/2000/svg" id="mainLogo" viewBox="0.00 110.00 300.00 75.00 " width="100%" height="100%">
  <defs />
  <g data-mask="1" data-refid="shape" fill="#40a4dd" data-box="15.00 128.15 38.84 43.69 " transform="matrix(0.0871042819765766 0 0 0.0871042819765766 12.578501027506464 128.15860237427196)">
    <svg version="1.1" id="FLDSRC_SHAPE" xmlns="http://www.w3.org/2000/svg" xmlns:xlink="http://www.w3.org/1999/xlink" x="0px" y="0px" viewBox="0 0 501.5 501.5" xml:space="preserve" width="501.5" height="501.5">
      <path class="st0" d="M272.5,495.7L452,392.1c13.5-7.8,21.7-22.1,21.7-37.7V147.1c0-15.5-8.3-29.9-21.7-37.7L272.5,5.8&#xA;&#x9;C259-2,242.5-2,229,5.8L49.5,109.4c-13.5,7.8-21.7,22.1-21.7,37.7v207.3c0,15.5,8.3,29.9,21.7,37.7L229,495.7&#xA;&#x9;C242.5,503.5,259,503.5,272.5,495.7z" />
      <title />
      
    </svg>
  </g>
  <g data-mask="0" data-refid="icon" fill="#ffffff" data-box="24.49 137.73 19.86 24.55 " transform="matrix(0.25588738155868695 0 0 0.255887381558687 21.629886845430427 137.0885697057847)">
    <svg xmlns="http://www.w3.org/2000/svg" xmlns:xlink="http://www.w3.org/1999/xlink" version="1.1" x="0px" y="0px" viewBox="0 0 100 100" enable-background="new 0 0 100 100" xml:space="preserve" width="100" height="100" id="FLDSRC_ICON">
      <path d="M85.897,49.011h-0.148c-1.605,0-2.907-1.301-2.907-2.907c0-1.606,1.301-2.907,2.907-2.907s2.907-1.301,2.907-2.907  c0-1.605-1.301-2.907-2.907-2.907H74.036c-1.605,0-2.907-1.301-2.907-2.907s1.301-2.907,2.907-2.907h0.847  c1.605,0,2.907-1.301,2.907-2.907c0-1.606-1.301-2.907-2.907-2.907h-3.219c-1.606,0-2.907-1.301-2.907-2.907  c0-1.605,1.301-2.907,2.907-2.907h2.372c1.606,0,2.907-1.301,2.907-2.907s-1.301-2.907-2.907-2.907H60.912  c-1.605,0-2.907-1.301-2.907-2.907s1.301-2.907,2.907-2.907s2.907-1.301,2.907-2.907c0-1.605-1.301-2.907-2.907-2.907H38.689  c-1.605,0-2.907,1.301-2.907,2.907c0,1.606,1.301,2.907,2.907,2.907h-0.11c1.605,0,2.907,1.301,2.907,2.907  s-1.301,2.907-2.907,2.907H26.012c-1.606,0-2.907,1.301-2.907,2.907s1.301,2.907,2.907,2.907h10.372  c1.605,0,2.907,1.301,2.907,2.907c0,1.606-1.301,2.907-2.907,2.907H23.482c-1.605,0-2.907,1.301-2.907,2.907  c0,1.605,1.301,2.907,2.907,2.907h10.883c1.605,0,2.907,1.301,2.907,2.907s-1.301,2.907-2.907,2.907h-7.676  c-1.605,0-2.907,1.301-2.907,2.907c0,1.606,1.301,2.907,2.907,2.907h-1.252c1.605,0,2.907,1.301,2.907,2.907  c0,1.605-1.301,2.907-2.907,2.907H14.103c-1.606,0-2.907,1.301-2.907,2.907s1.301,2.907,2.907,2.907h9.679  c1.605,0,2.907,1.301,2.907,2.907c0,1.606-1.301,2.907-2.907,2.907h-0.53c-1.605,0-2.907,1.301-2.907,2.907  c0,1.605,1.301,2.907,2.907,2.907h8.715c1.605,0,2.907,1.301,2.907,2.907s-1.301,2.907-2.907,2.907h-14.38  c-1.605,0-2.907,1.301-2.907,2.907s1.301,2.907,2.907,2.907h29.46l-1.018,20.369h7.99l-1.018-20.369h29.166  c1.605,0,2.907-1.301,2.907-2.907s-1.301-2.907-2.907-2.907h-5.224c-1.606,0-2.907-1.301-2.907-2.907s1.301-2.907,2.907-2.907h0.847  c1.605,0,2.907-1.301,2.907-2.907c0-1.606-1.301-2.907-2.907-2.907h-9.032c-1.605,0-2.907-1.301-2.907-2.907  c0-1.605,1.301-2.907,2.907-2.907h17.139c1.605,0,2.907-1.301,2.907-2.907S87.502,49.011,85.897,49.011z" />
    </svg>
  </g>
  <path data-refid="title" fill="#ffffff" d="M 21.45-0.3L 21.45-0.3L 21.69-0.3L 21.69 0L 14.94 0L 14.94-0.3L 15.21-0.3Q 15.84-0.3  16.16-0.7Q 16.47-1.11  16.47-1.47Q 16.47-1.83  16.35-2.19L 16.35-2.19L 14.43-7.29L 6.33-7.29L 4.32-2.16Q 4.2-1.8  4.2-1.45Q 4.2-1.11  4.51-0.7Q 4.83-0.3  5.46-0.3L 5.46-0.3L 5.73-0.3L 5.73 0L-0.3 0L-0.3-0.3L-0.03-0.3Q 0.72-0.3  1.44-0.78Q 2.16-1.26  2.61-2.19L 2.61-2.19L 9.39-18.33Q 10.5-20.76  10.5-21.42L 10.5-21.42L 10.77-21.42L 18.81-2.19Q 19.23-1.26  19.95-0.78Q 20.67-0.3  21.45-0.3ZM 10.47-17.82L 6.69-8.19L 14.07-8.19L 10.47-17.82ZM 47.04-0.3L 47.04-0.3L 47.489999999999995-0.3L 47.489999999999995 0L 41.25 0L 41.25-0.27L 41.7-0.27Q 42.15-0.27  42.489999999999995-0.61Q 42.84-0.96  42.78-1.44L 42.78-1.44L 41.22-13.8L 35.55-2.64Q 34.71-0.81  34.5 0.42L 34.5 0.42L 34.2 0.42L 26.97-13.53L 25.619999999999997-1.44Q 25.56-0.99  25.9-0.63Q 26.25-0.27  26.73-0.27L 26.73-0.27L 27.15-0.27L 27.15 0L 21.599999999999998 0L 21.599999999999998-0.3L 22.05-0.3Q 23.13-0.3  23.73-1.08L 23.73-1.08Q 24.03-1.47  24.09-2.01L 24.09-2.01L 26.43-18.42L 26.73-18.42L 34.65-3.18L 42.3-18.42L 42.57-18.42L 45-1.95Q 45.120000000000005-1.2  45.69-0.75Q 46.26-0.3  47.04-0.3ZM 49.35-0.3L 49.77-0.3Q 50.580000000000005-0.3  51.18-0.78Q 51.78-1.26  51.78-1.92L 51.78-1.92L 51.78-16.08Q 51.78-16.74  51.18-17.22Q 50.580000000000005-17.7  49.74-17.7L 49.74-17.7L 49.35-17.7L 49.35-18L 56.13-18L 56.13-17.7L 55.74-17.7Q 54.93000000000001-17.7  54.34-17.25Q 53.760000000000005-16.8  53.7-16.14L 53.7-16.14L 53.7-1.89Q 53.730000000000004-1.23  54.330000000000005-0.77Q 54.93000000000001-0.3  55.74-0.3L 55.74-0.3L 56.13-0.3L 56.160000000000004 0L 49.35 0L 49.35-0.3ZM 76.65-0.3L 76.65 0L 75.54 0Q 72.6 0  71.13-1.71L 71.13-1.71L 64.53-8.94L 70.98-16.53Q 71.31-16.95  71.08-17.32Q 70.86-17.7  70.32-17.7L 70.32-17.7L 70.05-17.7L 70.05-18L 76.17-18L 76.17-17.7L 76.05-17.7Q 74.22-17.7  73.14-16.62L 73.14-16.62L 66.6-9.63L 74.04-1.53Q 74.58-0.87  75.15-0.6Q 75.72-0.33  76.65-0.3L 76.65-0.3ZM 65.25-0.3L 65.25-0.3L 65.58-0.3L 65.58 0L 59.43 0L 59.43-0.3L 59.79-0.3Q 60.51-0.3  61.02-0.78Q 61.53-1.26  61.56-1.92L 61.56-1.92L 61.56-16.08Q 61.53-16.74  61.02-17.22Q 60.51-17.7  59.79-17.7L 59.79-17.7L 59.43-17.7L 59.43-18L 65.58-18L 65.58-17.7L 65.22-17.7Q 64.26-17.7  63.72-16.92L 63.72-16.92Q 63.480000000000004-16.56  63.480000000000004-16.11L 63.480000000000004-16.11L 63.480000000000004-1.89Q 63.480000000000004-1.23  64-0.77Q 64.53-0.3  65.25-0.3ZM 95.37000000000002-0.3L 95.37000000000002 0L 94.26000000000002 0Q 91.32000000000002 0  89.85000000000001-1.71L 89.85000000000001-1.71L 83.25000000000001-8.94L 89.70000000000002-16.53Q 90.03000000000002-16.95  89.80000000000001-17.32Q 89.58000000000001-17.7  89.04000000000002-17.7L 89.04000000000002-17.7L 88.77000000000001-17.7L 88.77000000000001-18L 94.89000000000001-18L 94.89000000000001-17.7L 94.77000000000001-17.7Q 92.94000000000001-17.7  91.86000000000001-16.62L 91.86000000000001-16.62L 85.32000000000002-9.63L 92.76000000000002-1.53Q 93.30000000000001-0.87  93.87000000000002-0.6Q 94.44000000000001-0.33  95.37000000000002-0.3L 95.37000000000002-0.3ZM 83.97000000000001-0.3L 83.97000000000001-0.3L 84.30000000000001-0.3L 84.30000000000001 0L 78.15000000000002 0L 78.15000000000002-0.3L 78.51000000000002-0.3Q 79.23000000000002-0.3  79.74000000000001-0.78Q 80.25000000000001-1.26  80.28000000000002-1.92L 80.28000000000002-1.92L 80.28000000000002-16.08Q 80.25000000000001-16.74  79.74000000000001-17.22Q 79.23000000000002-17.7  78.51000000000002-17.7L 78.51000000000002-17.7L 78.15000000000002-17.7L 78.15000000000002-18L 84.30000000000001-18L 84.30000000000001-17.7L 83.94000000000001-17.7Q 82.98000000000002-17.7  82.44000000000001-16.92L 82.44000000000001-16.92Q 82.20000000000002-16.56  82.20000000000002-16.11L 82.20000000000002-16.11L 82.20000000000002-1.89Q 82.20000000000002-1.23  82.72000000000001-0.77Q 83.25000000000001-0.3  83.97000000000001-0.3ZM 115.02-0.3L 115.02-0.3L 115.25999999999999-0.3L 115.25999999999999 0L 109.11 0L 109.11-0.3L 109.35-0.3Q 109.92-0.3  110.22-0.69Q 110.52-1.08  110.52-1.43Q 110.52-1.77  110.4-2.1L 110.4-2.1L 108.75-6.09L 101.16-6.09L 99.51-2.19Q 99.36-1.8  99.36-1.45Q 99.36-1.11  99.66-0.7Q 99.96-0.3  100.56-0.3L 100.56-0.3L 100.8-0.3L 100.8 0L 95.07 0L 95.07-0.3L 95.31-0.3Q 95.94-0.3  96.58-0.73Q 97.23-1.17  97.65-2.04L 97.65-2.04Q 104.22-16.08  104.49-16.74L 104.49-16.74Q 105-18  105.03-18.42L 105.03-18.42L 105.3-18.42L 112.71-2.04Q 113.58-0.3  115.02-0.3ZM 105.03-15.21L 101.55-6.99L 108.39-6.99L 105.03-15.21ZM 140.28-17.82L 140.28-18.33Q 140.28-19.05  139.77-19.57Q 139.26-20.1  138.57-20.13L 138.57-20.13L 132.87-20.13L 132.87-2.16Q 132.9-1.38  133.45-0.84Q 134.01-0.3  134.79-0.3L 134.79-0.3L 135.18-0.3L 135.18 0L 128.61 0L 128.61-0.3L 129-0.3Q 129.78-0.3  130.33-0.84Q 130.89-1.38  130.92-2.13L 130.92-2.13L 130.92-20.13L 125.22-20.13Q 124.5-20.1  124.01-19.57Q 123.51-19.05  123.51-18.33L 123.51-18.33L 123.51-17.82L 123.21-17.79L 123.21-21.57Q 123.66-21.39  124.77-21.21Q 125.88-21.03  126.81-21.03L 126.81-21.03L 136.95-21.03Q 138.42-21.03  139.4-21.25Q 140.37-21.48  140.57999999999998-21.57L 140.57999999999998-21.57L 140.57999999999998-17.79L 140.28-17.82ZM 161.09999999999997-18L 161.09999999999997-17.7L 160.64999999999998-17.7Q 159.83999999999997-17.7  159.42-17.07L 159.42-17.07Q 159.23999999999998-16.8  159.20999999999998-16.44L 159.20999999999998-16.44L 159.20999999999998-6.33Q 159.20999999999998-3.21  157.20999999999998-1.4Q 155.21999999999997 0.42  151.73999999999998 0.42Q 148.26 0.42  146.24999999999997-1.38Q 144.23999999999998-3.18  144.23999999999998-6.3L 144.23999999999998-6.3L 144.23999999999998-16.41Q 144.23999999999998-16.95  143.81999999999996-17.32Q 143.39999999999998-17.7  142.79999999999998-17.7L 142.79999999999998-17.7L 142.34999999999997-17.7L 142.34999999999997-18L 148.04999999999998-18L 148.04999999999998-17.7L 147.59999999999997-17.7Q 146.99999999999997-17.7  146.57999999999998-17.32Q 146.15999999999997-16.95  146.15999999999997-16.41L 146.15999999999997-16.41L 146.15999999999997-6.66Q 146.15999999999997-3.75  147.64999999999998-2.07Q 149.12999999999997-0.39  151.84999999999997-0.39Q 154.55999999999997-0.39  156.18999999999997-1.98Q 157.82999999999998-3.57  157.82999999999998-6.33L 157.82999999999998-6.33L 157.82999999999998-16.41Q 157.79999999999998-16.98  157.39999999999998-17.34Q 156.98999999999998-17.7  156.39-17.7L 156.39-17.7L 155.93999999999997-17.7L 155.93999999999997-18L 161.09999999999997-18ZM 177.23999999999998-17.13L 171.80999999999997-17.13L 171.80999999999997-1.89Q 171.83999999999997-0.96  172.70999999999998-0.51L 172.70999999999998-0.51Q 173.09999999999997-0.3  173.57999999999998-0.3L 173.57999999999998-0.3L 173.90999999999997-0.3L 173.90999999999997 0L 167.73 0L 167.73-0.3L 168.08999999999997-0.3Q 168.80999999999997-0.3  169.31999999999996-0.78Q 169.82999999999998-1.26  169.85999999999999-1.92L 169.85999999999999-1.92L 169.85999999999999-17.13L 164.42999999999998-17.13Q 163.73999999999998-17.13  163.33999999999997-16.68Q 162.92999999999998-16.23  162.92999999999998-15.6L 162.92999999999998-15.6L 162.92999999999998-15.12L 162.59999999999997-15.12L 162.59999999999997-18.51Q 163.2-18.27  164.29999999999998-18.15Q 165.39-18.03  165.92999999999998-18.03L 165.92999999999998-18.03L 175.70999999999998-18.03Q 177.86999999999998-18.03  179.07-18.51L 179.07-18.51L 179.07-15.12L 178.73999999999998-15.12L 178.73999999999998-15.6Q 178.73999999999998-16.23  178.32-16.68Q 177.89999999999998-17.13  177.23999999999998-17.13L 177.23999999999998-17.13ZM 185.13-17.23Q 187.44-18.42  190.22-18.42Q 192.99-18.42  195.3-17.23Q 197.61-16.05  198.97-13.89Q 200.34-11.73  200.34-9Q 200.34-6.27  198.97-4.11Q 197.61-1.95  195.3-0.77Q 192.99 0.42  190.56 0.42Q 188.13 0.42  186.27-0.27Q 184.41-0.96  183.05-2.19Q 181.68-3.42  180.88-5.19Q 180.09-6.96  180.09-9.34Q 180.09-11.73  181.45000000000002-13.89Q 182.82-16.05  185.13-17.23ZM 184.57-2.86Q 186.84-0.48  190.2-0.48Q 193.56-0.48  195.84-2.86Q 198.12-5.25  198.12-9Q 198.12-12.75  195.84-15.13Q 193.56-17.52  190.2-17.52Q 186.84-17.52  184.57-15.13Q 182.31-12.75  182.31-9Q 182.31-5.25  184.57-2.86ZM 208.61999999999998-17.07L 208.61999999999998-17.07L 207.02999999999997-17.07L 207.02999999999997-1.92Q 207.05999999999997-0.99  207.86999999999998-0.51L 207.86999999999998-0.51Q 208.26-0.3  208.73999999999998-0.3L 208.73999999999998-0.3L 209.13-0.3L 209.16 0L 203.01 0L 203.01-0.3L 203.42999999999998-0.3Q 204.11999999999998-0.3  204.60999999999999-0.77Q 205.10999999999999-1.23  205.10999999999999-1.89L 205.10999999999999-1.89L 205.10999999999999-16.14Q 205.10999999999999-16.8  204.60999999999999-17.25Q 204.11999999999998-17.7  203.42999999999998-17.7L 203.42999999999998-17.7L 203.01-17.7L 203.01-18L 210.54-18Q 213.35999999999999-18  214.98999999999998-16.71Q 216.63-15.42  216.63-13.32Q 216.63-11.22  215.30999999999997-9.81Q 213.98999999999998-8.4  211.95-8.19L 211.95-8.19Q 212.91-7.77  214.26-5.85L 214.26-5.85Q 214.23-5.85  215.29-4.53Q 216.35999999999999-3.21  217-2.48Q 217.64999999999998-1.74  218.07-1.35L 218.07-1.35Q 219.17999999999998-0.3  220.61999999999998-0.3L 220.61999999999998-0.3L 220.61999999999998 0L 219.69 0Q 217.32 0  215.96999999999997-0.93L 215.96999999999997-0.93Q 214.95-1.62  214.10999999999999-2.64L 214.10999999999999-2.64Q 213.92999999999998-2.88  212.58999999999997-4.75Q 211.26-6.63  211.17-6.75L 211.17-6.75Q 209.54999999999998-8.76  208.14-8.76L 208.14-8.76L 208.14-9.06Q 211.64999999999998-9.06  212.36999999999998-9.42L 212.36999999999998-9.42Q 213.35999999999999-9.93  213.71999999999997-10.5L 213.71999999999997-10.5Q 214.46999999999997-11.7  214.46999999999997-13.14L 214.46999999999997-13.14Q 214.46999999999997-14.97  213.39-15.96Q 212.30999999999997-16.95  210.48-17.04L 210.48-17.04Q 209.67-17.07  208.61999999999998-17.07ZM 221.82000000000002-0.3L 222.24-0.3Q 223.05-0.3  223.65-0.78Q 224.25000000000003-1.26  224.25000000000003-1.92L 224.25000000000003-1.92L 224.25000000000003-16.08Q 224.25000000000003-16.74  223.65-17.22Q 223.05-17.7  222.21-17.7L 222.21-17.7L 221.82000000000002-17.7L 221.82000000000002-18L 228.60000000000002-18L 228.60000000000002-17.7L 228.21-17.7Q 227.4-17.7  226.81-17.25Q 226.23000000000002-16.8  226.17000000000002-16.14L 226.17000000000002-16.14L 226.17000000000002-1.89Q 226.20000000000002-1.23  226.8-0.77Q 227.4-0.3  228.21-0.3L 228.21-0.3L 228.60000000000002-0.3L 228.63000000000002 0L 221.82000000000002 0L 221.82000000000002-0.3ZM 252.57-17.7L 252.06-17.7Q 251.4-17.7  250.92000000000002-17.27Q 250.44-16.83  250.41-16.2L 250.41-16.2L 250.41-3.42Q 250.41-1.68  250.62-0.12L 250.62-0.12L 250.68 0.42L 250.41 0.42L 234.81-14.37L 234.81-1.86Q 234.81-1.2  235.29-0.75Q 235.77-0.3  236.46-0.3L 236.46-0.3L 236.97-0.3L 236.97 0L 231.3 0L 231.3-0.3L 231.81-0.3Q 232.5-0.3  232.98-0.75Q 233.46-1.2  233.46-1.86L 233.46-1.86L 233.46-14.7Q 233.46-16.53  233.25-17.97L 233.25-17.97L 233.19-18.45L 233.52-18.42L 249.09-3.75L 249.09-16.2Q 249.03-16.83  248.55-17.27Q 248.07-17.7  247.41-17.7L 247.41-17.7L 246.9-17.7L 246.9-18L 252.57-18L 252.57-17.7ZM 264.80999999999995 0.42Q 260.34 0.39  257.65-2.15Q 254.96999999999997-4.68  254.96999999999997-9.01Q 254.96999999999997-13.35  257.65-15.88Q 260.34-18.42  264.59-18.42Q 268.83-18.42  271.79999999999995-16.62L 271.79999999999995-16.62L 272.46-12.36L 272.18999999999994-12.36Q 271.55999999999995-15  269.73999999999995-16.26Q 267.92999999999995-17.52  264.60999999999996-17.52Q 261.29999999999995-17.52  259.21999999999997-15.22Q 257.13-12.93  257.13-9Q 257.13-5.07  259.22999999999996-2.77Q 261.33-0.48  265.03-0.48Q 268.73999999999995-0.48  271.40999999999997-3.09L 271.40999999999997-3.09L 271.43999999999994-7.08Q 271.46999999999997-7.62  271.09999999999997-7.93Q 270.71999999999997-8.25  270.05999999999995-8.25L 270.05999999999995-8.25L 269.64-8.25L 269.64-8.55L 275.13-8.55L 275.13-8.25L 274.71-8.25Q 273.35999999999996-8.25  273.35999999999996-7.05L 273.35999999999996-7.05L 273.35999999999996-3.45Q 272.09999999999997-1.89  269.9-0.73Q 267.69 0.42  264.80999999999995 0.42L 264.80999999999995 0.42Z" data-box="62.84 141.13 222.16 17.74 " transform="matrix(0.8065940690837835 0 0 0.8065940690837837 63.08177969026538 158.52973212671543)" />
</svg>