<svg xmlns="http://www.w3.org/2000/svg" id="mainLogo" viewBox="0.00 60.00 300.00 140.00 " width="100%" height="100%">
  <defs />
  <g data-refid="icon" fill="#40a4dd" data-box="127.80 98.65 44.40 54.90 " transform="matrix(0.5721670650687963 0 0 0.5721670650687962 121.39164892920434 97.22247206368961)">
    <svg xmlns="http://www.w3.org/2000/svg" xmlns:xlink="http://www.w3.org/1999/xlink" version="1.1" x="0px" y="0px" viewBox="0 0 100 100" enable-background="new 0 0 100 100" xml:space="preserve" width="100" height="100" id="FLDSRC_ICON">
      <path d="M85.897,49.011h-0.148c-1.605,0-2.907-1.301-2.907-2.907c0-1.606,1.301-2.907,2.907-2.907s2.907-1.301,2.907-2.907  c0-1.605-1.301-2.907-2.907-2.907H74.036c-1.605,0-2.907-1.301-2.907-2.907s1.301-2.907,2.907-2.907h0.847  c1.605,0,2.907-1.301,2.907-2.907c0-1.606-1.301-2.907-2.907-2.907h-3.219c-1.606,0-2.907-1.301-2.907-2.907  c0-1.605,1.301-2.907,2.907-2.907h2.372c1.606,0,2.907-1.301,2.907-2.907s-1.301-2.907-2.907-2.907H60.912  c-1.605,0-2.907-1.301-2.907-2.907s1.301-2.907,2.907-2.907s2.907-1.301,2.907-2.907c0-1.605-1.301-2.907-2.907-2.907H38.689  c-1.605,0-2.907,1.301-2.907,2.907c0,1.606,1.301,2.907,2.907,2.907h-0.11c1.605,0,2.907,1.301,2.907,2.907  s-1.301,2.907-2.907,2.907H26.012c-1.606,0-2.907,1.301-2.907,2.907s1.301,2.907,2.907,2.907h10.372  c1.605,0,2.907,1.301,2.907,2.907c0,1.606-1.301,2.907-2.907,2.907H23.482c-1.605,0-2.907,1.301-2.907,2.907  c0,1.605,1.301,2.907,2.907,2.907h10.883c1.605,0,2.907,1.301,2.907,2.907s-1.301,2.907-2.907,2.907h-7.676  c-1.605,0-2.907,1.301-2.907,2.907c0,1.606,1.301,2.907,2.907,2.907h-1.252c1.605,0,2.907,1.301,2.907,2.907  c0,1.605-1.301,2.907-2.907,2.907H14.103c-1.606,0-2.907,1.301-2.907,2.907s1.301,2.907,2.907,2.907h9.679  c1.605,0,2.907,1.301,2.907,2.907c0,1.606-1.301,2.907-2.907,2.907h-0.53c-1.605,0-2.907,1.301-2.907,2.907  c0,1.605,1.301,2.907,2.907,2.907h8.715c1.605,0,2.907,1.301,2.907,2.907s-1.301,2.907-2.907,2.907h-14.38  c-1.605,0-2.907,1.301-2.907,2.907s1.301,2.907,2.907,2.907h29.46l-1.018,20.369h7.99l-1.018-20.369h29.166  c1.605,0,2.907-1.301,2.907-2.907s-1.301-2.907-2.907-2.907h-5.224c-1.606,0-2.907-1.301-2.907-2.907s1.301-2.907,2.907-2.907h0.847  c1.605,0,2.907-1.301,2.907-2.907c0-1.606-1.301-2.907-2.907-2.907h-9.032c-1.605,0-2.907-1.301-2.907-2.907  c0-1.605,1.301-2.907,2.907-2.907h17.139c1.605,0,2.907-1.301,2.907-2.907S87.502,49.011,85.897,49.011z" />
    </svg>
  </g>
  <path data-refid="title" fill="#0c0b0b" d="M 21.84 0L 18.64-8.32L 7.12-8.32L 3.92 0L 0.8 0L 11.44-26.68L 14.32-26.68L 24.92 0L 21.84 0ZM 8.2-11.08L 17.56-11.08L 12.88-23.28L 8.2-11.08ZM 49.919999999999995-20.32Q 54.11999999999999-20.32  55.98-18.48Q 57.83999999999999-16.64  57.83999999999999-13L 57.83999999999999-13L 57.83999999999999 0L 54.959999999999994 0L 54.959999999999994-13Q 54.959999999999994-17.72  49.599999999999994-17.72L 49.599999999999994-17.72Q 47.03999999999999-17.72  44.75999999999999-16.36L 44.75999999999999-16.36Q 45.279999999999994-14.96  45.279999999999994-13L 45.279999999999994-13L 45.279999999999994 0L 42.39999999999999 0L 42.39999999999999-13Q 42.39999999999999-17.72  37.03999999999999-17.72L 37.03999999999999-17.72Q 34.559999999999995-17.72  31.799999999999997-16.92L 31.799999999999997-16.92L 31.799999999999997 0L 28.919999999999995 0L 28.919999999999995-18.36Q 32.8-20.32  37.36-20.32L 37.36-20.32Q 41.239999999999995-20.32  43.199999999999996-18.68L 43.199999999999996-18.68Q 46.199999999999996-20.32  49.919999999999995-20.32L 49.919999999999995-20.32ZM 64.24000000000001-23.52L 64.24000000000001-26.68L 67.44000000000001-26.68L 67.44000000000001-23.52L 64.24000000000001-23.52ZM 64.4 0L 64.4-19.96L 67.28-19.96L 67.28 0L 64.4 0ZM 89.88 0L 86.04 0L 76.72-9.44L 76.72 0L 73.84 0L 73.84-27.56L 76.72-27.56L 76.72-12.56L 84.84-19.96L 88.44-19.96L 78.64-11.32L 89.88 0ZM 110.32 0L 106.48 0L 97.16-9.44L 97.16 0L 94.28 0L 94.28-27.56L 97.16-27.56L 97.16-12.56L 105.28-19.96L 108.88-19.96L 99.08-11.32L 110.32 0ZM 123.24000000000001-20.32Q 126.60000000000001-20.32  128.54000000000002-18.68Q 130.48000000000002-17.04  130.48000000000002-13.92L 130.48000000000002-13.92L 130.48000000000002-4.24Q 130.48000000000002-1.36  128.12-0.38Q 125.76 0.6  121.60000000000001 0.6L 121.60000000000001 0.6Q 118.44000000000001 0.6  116.18-0.8Q 113.92000000000002-2.2  113.92000000000002-5.48L 113.92000000000002-5.48Q 113.92000000000002-9.04  115.88000000000001-10.66Q 117.84-12.28  121.28000000000002-12.28L 121.28000000000002-12.28Q 125.16000000000001-12.28  127.56-10.88L 127.56-10.88L 127.56-13.24Q 127.56-17.72  122.32000000000001-17.72L 122.32000000000001-17.72Q 120.60000000000001-17.72  118.84-17.24Q 117.08000000000001-16.76  115.88000000000001-15.8L 115.88000000000001-15.8L 115.88000000000001-18.68Q 117.08000000000001-19.44  119.14000000000001-19.88Q 121.20000000000002-20.32  123.24000000000001-20.32L 123.24000000000001-20.32ZM 122.28000000000002-1.96Q 125.08000000000001-1.96  126.32000000000001-2.38Q 127.56-2.8  127.56-4.08L 127.56-4.08L 127.56-8.56Q 126.48000000000002-9.08  125.04-9.38Q 123.60000000000001-9.68  122.04-9.68L 122.04-9.68Q 119.52000000000001-9.68  118.16000000000001-8.72Q 116.80000000000001-7.76  116.80000000000001-5.92L 116.80000000000001-5.92Q 116.80000000000001-3.84  118.4-2.9Q 120.00000000000001-1.96  122.28000000000002-1.96L 122.28000000000002-1.96ZM 152.67999999999998 3.96L 152.67999999999998-26.6L 155.55999999999997-26.6L 155.55999999999997 3.96L 152.67999999999998 3.96ZM 184.84 0L 184.84-23.96L 175.4-23.96L 175.4-26.68L 197.12-26.68L 197.12-23.96L 187.72-23.96L 187.72 0L 184.84 0ZM 204.88000000000002-20.32Q 209.44000000000003-20.32  211.56-17.36Q 213.68-14.4  213.60000000000002-9.48L 213.60000000000002-9.48L 199.04000000000002-9.48Q 199.04000000000002-5.88  200.72000000000003-3.96Q 202.4-2.04  205.52-2.04L 205.52-2.04Q 209.52-2.04  212.36-3.76L 212.36-3.76L 212.36-0.8Q 209.44000000000003 0.6  205.36 0.6L 205.36 0.6Q 201.00000000000003 0.6  198.56-2.1Q 196.12-4.8  196.12-10L 196.12-10Q 196.12-15.08  198.42000000000002-17.7Q 200.72000000000003-20.32  204.88000000000002-20.32L 204.88000000000002-20.32ZM 204.88000000000002-17.68Q 202.24-17.68  200.88000000000002-16.46Q 199.52-15.24  199.16000000000003-12.12L 199.16000000000003-12.12L 210.56-12.12Q 210.36-14.92  208.98000000000002-16.3Q 207.60000000000002-17.68  204.88000000000002-17.68L 204.88000000000002-17.68ZM 224.64000000000004 0.6Q 222.60000000000005 0.6  221.16000000000005 0.2Q 219.72000000000003-0.2  218.00000000000003-1.08L 218.00000000000003-1.08L 218.00000000000003-4.12Q 220.04000000000005-2.96  221.34000000000003-2.5Q 222.64000000000004-2.04  224.44000000000005-2.04L 224.44000000000005-2.04Q 226.44000000000005-2.04  227.70000000000005-2.92Q 228.96000000000004-3.8  228.96000000000004-5.2L 228.96000000000004-5.2Q 228.96000000000004-6.44  228.20000000000005-7.06Q 227.44000000000005-7.68  225.80000000000004-8.32L 225.80000000000004-8.32L 224.76000000000005-8.76Q 222.48000000000005-9.4  221.22000000000003-9.92Q 219.96000000000004-10.44  219.02000000000004-11.56Q 218.08000000000004-12.68  218.08000000000004-14.6L 218.08000000000004-14.6Q 218.08000000000004-16.52  219.08000000000004-17.8Q 220.08000000000004-19.08  221.68000000000004-19.7Q 223.28000000000003-20.32  225.04000000000005-20.32L 225.04000000000005-20.32Q 226.64000000000004-20.32  227.74000000000004-19.96Q 228.84000000000003-19.6  230.76000000000005-18.76L 230.76000000000005-18.76L 230.76000000000005-15.88Q 228.76000000000005-16.88  227.70000000000005-17.28Q 226.64000000000004-17.68  225.20000000000005-17.68L 225.20000000000005-17.68Q 223.44000000000003-17.68  222.20000000000005-16.98Q 220.96000000000004-16.28  220.96000000000004-15L 220.96000000000004-15Q 220.96000000000004-13.96  221.58000000000004-13.3Q 222.20000000000005-12.64  223.14000000000004-12.26Q 224.08000000000004-11.88  225.68000000000004-11.44L 225.68000000000004-11.44Q 227.68000000000004-10.8  228.86000000000004-10.28Q 230.04000000000005-9.76  230.94000000000005-8.62Q 231.84000000000003-7.48  231.84000000000003-5.56L 231.84000000000003-5.56Q 231.84000000000003-3.52  230.80000000000004-2.14Q 229.76000000000005-0.76  228.10000000000005-0.08Q 226.44000000000005 0.6  224.64000000000004 0.6L 224.64000000000004 0.6ZM 243.52000000000004 0.32Q 241.32000000000005 0.32  239.92000000000004-1.02Q 238.52000000000004-2.36  238.52000000000004-4.84L 238.52000000000004-4.84L 238.52000000000004-17.32L 235.04000000000005-17.32L 235.04000000000005-19.96L 238.52000000000004-19.96L 238.52000000000004-25.6L 241.40000000000006-25.6L 241.40000000000006-19.96L 246.56000000000006-19.96L 246.56000000000006-17.32L 241.40000000000006-17.32L 241.40000000000006-5.76Q 241.40000000000006-4  241.96000000000004-3.2Q 242.52000000000004-2.4  244.04000000000005-2.4L 244.04000000000005-2.4Q 245.52000000000004-2.4  246.56000000000006-2.88L 246.56000000000006-2.88L 246.56000000000006-0.16Q 246.00000000000006 0.04  245.14000000000004 0.18Q 244.28000000000006 0.32  243.52000000000004 0.32L 243.52000000000004 0.32ZM 254.84-10.2L 254.84 0L 251.96 0L 251.96-26.68L 261.44-26.68Q 265.92-26.68  268.3-24.56Q 270.68-22.44  270.68-18.44L 270.68-18.44Q 270.68-14.44  268.3-12.32Q 265.92-10.2  261.44-10.2L 261.44-10.2L 254.84-10.2ZM 254.84-12.96L 261.08-12.96Q 265.08-12.96  266.44-14.48Q 267.8-16  267.8-18.44L 267.8-18.44Q 267.8-20.88  266.44-22.4Q 265.08-23.92  261.08-23.92L 261.08-23.92L 254.84-23.92L 254.84-12.96ZM 276.28000000000003 0L 276.28000000000003-18.36Q 277.80000000000007-19  280.30000000000007-19.66Q 282.80000000000007-20.32  285.48-20.32L 285.48-20.32Q 285.88000000000005-20.32  286.76000000000005-20.08L 286.76000000000005-20.08L 286.76000000000005-17.52Q 285.80000000000007-17.64  284.84000000000003-17.64L 284.84000000000003-17.64Q 283.52000000000004-17.64  282.40000000000003-17.48Q 281.28000000000003-17.32  279.16-16.96L 279.16-16.96L 279.16 0L 276.28000000000003 0ZM 297.72-20.32Q 302.28000000000003-20.32  304.40000000000003-17.36Q 306.52000000000004-14.4  306.44000000000005-9.48L 306.44000000000005-9.48L 291.88000000000005-9.48Q 291.88000000000005-5.88  293.56000000000006-3.96Q 295.24000000000007-2.04  298.36000000000007-2.04L 298.36000000000007-2.04Q 302.36000000000007-2.04  305.20000000000005-3.76L 305.20000000000005-3.76L 305.20000000000005-0.8Q 302.28000000000003 0.6  298.20000000000005 0.6L 298.20000000000005 0.6Q 293.84000000000003 0.6  291.40000000000003-2.1Q 288.96000000000004-4.8  288.96000000000004-10L 288.96000000000004-10Q 288.96000000000004-15.08  291.26000000000005-17.7Q 293.56000000000006-20.32  297.72-20.32L 297.72-20.32ZM 297.72-17.68Q 295.08000000000004-17.68  293.72-16.46Q 292.36000000000007-15.24  292.00000000000006-12.12L 292.00000000000006-12.12L 303.40000000000003-12.12Q 303.20000000000005-14.92  301.82000000000005-16.3Q 300.44000000000005-17.68  297.72-17.68L 297.72-17.68ZM 319.9200000000001-20.32Q 323.9200000000001-20.32  326.5600000000001-17.74Q 329.2000000000001-15.16  329.2000000000001-9.48L 329.2000000000001-9.48Q 329.2000000000001-4.8  326.7200000000001-2.12Q 324.2400000000001 0.56  319.6800000000001 0.56L 319.6800000000001 0.56Q 318.6400000000001 0.56  317.2800000000001 0.24Q 315.9200000000001-0.08  314.7200000000001-0.6L 314.7200000000001-0.6L 314.7200000000001 8.68L 311.8400000000001 8.68L 311.8400000000001-16.36Q 311.8400000000001-18.56  314.2600000000001-19.42Q 316.6800000000001-20.28  319.9200000000001-20.32L 319.9200000000001-20.32ZM 319.6800000000001-2.08Q 322.8400000000001-2.08  324.5000000000001-4.08Q 326.1600000000001-6.08  326.1600000000001-9.48L 326.1600000000001-9.48Q 326.1600000000001-13.24  324.8000000000001-15.46Q 323.4400000000001-17.68  319.8800000000001-17.68L 319.8800000000001-17.68Q 317.7200000000001-17.68  316.2200000000001-17.18Q 314.7200000000001-16.68  314.7200000000001-15.84L 314.7200000000001-15.84L 314.7200000000001-3.48Q 317.1200000000001-2.08  319.6800000000001-2.08L 319.6800000000001-2.08Z" data-box="15.00 171.55 270.00 29.80 " transform="matrix(0.8221680265759391 0 0 0.8221680265759391 14.342265568938242 194.21126660996197)" />
</svg>