<svg xmlns="http://www.w3.org/2000/svg" id="mainLogo" viewBox="0.00 0.00 300.00 300.00 " width="1000" height="1000">
  <defs />
  <g data-mask="1" data-refid="shape" fill="#40a4dd" data-box="63.45 47.85 173.10 174.60 " transform="matrix(0.3018259615284178 0 0 0.30182596152841784 62.18371798495902 46.06296907686578)">
    <!--?xml version="1.0" encoding="utf-8"?-->
    <!-- Generator: Adobe Illustrator 23.1.0, SVG Export Plug-In . SVG Version: 6.00 Build 0)  -->
    <svg version="1.1" id="FLDSRC_SHAPE" xmlns="http://www.w3.org/2000/svg" xmlns:xlink="http://www.w3.org/1999/xlink" x="0px" y="0px" viewBox="0 0 584 590" xml:space="preserve" width="584" height="590">
      <g>
        <path class="st0" d="M4.8,298.4c0.1-0.5,0.2-1,0.3-1.5c-0.3-4.2-0.6-8.4-0.9-12.4C4.3,289.2,4.6,293.8,4.8,298.4z" />
        <path class="st0" d="M577.1,298.3c-0.1-1-0.2-2-0.3-2.9c-0.2-2-0.4-3.9-0.6-5.9c-0.2-1.9-0.4-3.9-0.6-5.8c-0.3-1.9-0.6-3.7-0.9-5.5&#xA;&#x9;&#x9;c-0.2-3.3-0.3-6.8-0.6-10.3c-0.4-3.5-0.8-7-1.2-10.6c-0.1-0.9-0.2-1.8-0.3-2.7c-0.1-0.9-0.3-1.8-0.4-2.7c-0.3-1.8-0.6-3.6-0.9-5.5&#xA;&#x9;&#x9;c-0.3-1.8-0.6-3.7-1-5.5c-0.3-1.9-0.8-3.7-1.2-5.6c-0.4-1.9-0.9-3.7-1.3-5.6c-0.4-1.9-0.9-3.8-1.4-5.6c-1.1-3.7-2.2-7.5-3.3-11.3&#xA;&#x9;&#x9;c-1.2-3.8-2.6-7.5-3.9-11.3c-0.3-0.9-0.6-1.9-1-2.8l-1.1-2.8c-0.8-1.9-1.5-3.7-2.3-5.6c-6.2-14.9-13.8-29.3-22.3-42.7&#xA;&#x9;&#x9;c-8.5-13.4-18-25.7-27.7-36.7c-0.1-0.1-0.2-0.3-0.4-0.4c1.9,1.4,1.8,0.7,0.5-1.2c-1.3-1.9-3.7-5.2-6.9-8.6&#xA;&#x9;&#x9;c-6.1-7-14.5-14.9-17.9-18c-8.7-7.7-16.3-13.9-23.4-19.1c-1.8-1.3-3.5-2.6-5.2-3.8c-0.8-0.6-1.7-1.2-2.5-1.8&#xA;&#x9;&#x9;c-0.8-0.6-1.7-1.1-2.5-1.7c-3.3-2.2-6.5-4.4-9.6-6.5c-3.2-2-6.4-3.9-9.5-5.9c-0.8-0.5-1.6-1-2.4-1.5c-0.8-0.5-1.6-0.9-2.5-1.4&#xA;&#x9;&#x9;c-1.6-0.9-3.3-1.8-5-2.8c-1.7-0.9-3.4-1.9-5.2-2.8c-1.8-0.9-3.6-1.8-5.5-2.7c-1.9-0.9-3.8-1.9-5.8-2.8c-2-1-4.1-1.8-6.2-2.7l-5-2&#xA;&#x9;&#x9;l-2.5-1c-0.8-0.3-1.7-0.6-2.5-0.9l-10.2-3.5c-18.4-5.9-37.5-9.9-56.7-12c-19.2-2.1-38.6-2.4-57.9-1.1c-3.5,0.2-6.9,0.8-10.1,1.1&#xA;&#x9;&#x9;c-1.6,0.2-3.2,0.4-4.7,0.6c-1.5,0.2-3.1,0.4-4.5,0.6c-2.9,0.5-5.8,1-8.5,1.4c-1.3,0.2-2.7,0.4-4,0.7c-1.3,0.2-2.5,0.5-3.8,0.8&#xA;&#x9;&#x9;c-2.5,0.5-4.8,1-7,1.5c-2.2,0.5-4.4,0.9-6.4,1.4c-4.1,1-7.7,1.9-11.1,2.7c-3.4,0.9-6.4,1.7-9.2,2.5c-2.8,0.7-5.4,1.3-7.7,2&#xA;&#x9;&#x9;c-4.7,1.3-8.6,2.3-12.2,3.3c-7.2,2.2-13.3,3.7-21.6,7.4c-1,0.5-2.1,0.9-3.3,1.4c-1.1,0.5-2.3,1-3.5,1.6c-2.4,1.2-5,2.6-7.8,4.1&#xA;&#x9;&#x9;c-1.4,0.8-2.9,1.6-4.4,2.5c-1.5,0.9-3.1,1.9-4.7,3c-3.3,2.1-6.9,4.4-10.6,7.2c-15.1,11-28.2,22.4-39.8,34&#xA;&#x9;&#x9;C61,100.9,49,115.4,38.5,130.4c-1.3,2.1-2.6,4.4-4,6.7c-1.4,2.3-2.8,4.6-4.2,7c-1.3,2.4-2.6,4.8-3.9,7.1c-1.3,2.3-2.6,4.6-3.6,6.8&#xA;&#x9;&#x9;c-6.5,12.8-8.9,18.5-11,22.2c-1,1.8-1.8,3.3-2.6,5c-0.8,1.7-1.8,3.8-3,6.9l2.5-5.1c-1.1,2.8-2.3,5.6-3.4,8.4&#xA;&#x9;&#x9;c3.2-5.8,5.9-10.5,8.2-13.5c2.3-2.9,3.9-4.2,4.6-3.3c0.5,0.7,0.5,2.6-0.2,6.2c-0.1,1.1,1.2-0.8,3.3-4.5c1.1-1.8,2.3-4.2,3.8-6.8&#xA;&#x9;&#x9;c1.5-2.6,3.2-5.4,5-8.5c7.3-12.1,17.1-26.3,24.3-34.4c4.8-4.3,3.6-0.4-0.5,7.3c-0.5,1-1.1,2-1.6,3.1c-0.6,1.1-1.1,2.3-1.7,3.5&#xA;&#x9;&#x9;c-1.2,2.4-2.6,5-4,7.8c-1.3,2.8-2.7,5.7-4.1,8.7c-0.7,1.5-1.5,3-2.1,4.5c-0.7,1.5-1.3,3.1-2,4.7c-1.4,3.7-3,7.6-4.3,11.6&#xA;&#x9;&#x9;c-0.3,0.4-0.5,0.8-0.8,1.2c-0.6,1.7-1.2,3.3-1.8,4.9c-0.3,0.8-0.6,1.6-0.8,2.4c-0.2,0.8-0.5,1.6-0.7,2.3c0.9-2.1,2.1-4,3.1-6&#xA;&#x9;&#x9;c1.1-1.9,2.1-3.9,3.2-5.8c0.5-0.9,1-1.9,1.6-2.8c0.6-0.9,1.1-1.8,1.7-2.7c1.1-1.8,2.2-3.5,3.3-5.2c1.3-2.8,3-5.5,4.9-8.4&#xA;&#x9;&#x9;c-0.7,1.3-1.5,2.8-2.4,4.5c1.6-2.3,3.2-4.4,4.7-6.5c0.8-1,1.5-2,2.2-3c0.7-1,1.5-1.9,2.2-2.7c1.5-1.8,2.9-3.4,4.2-4.9&#xA;&#x9;&#x9;c1.3-1.5,2.5-2.9,3.7-4c1.9-1.7,4.2-4,6.8-6.8c1.3-1.4,2.7-2.8,4.3-4.4c1.5-1.6,3.1-3.2,4.7-5c1.2-1.7,2.7-3.3,4.1-4.9&#xA;&#x9;&#x9;c1.4-1.6,2.9-3.3,4.4-5.1c-2.8,3.3-4.6,5.6-5.9,7.3c1.6-1.5,3.2-3.1,4.8-4.8c1.6-1.6,3.3-3.4,5.1-5c0.6-0.5,1.1-1,1.7-1.6&#xA;&#x9;&#x9;c-1.9,2.7-2.8,4.4-9.6,12.6c-22.9,26-40.9,56.4-52.5,89.9c0.1-0.2,0.1-0.4,0.2-0.6c0.3-1,0.6-2.1,1-3.1c0.6-2,1.3-4.1,1.9-6.1&#xA;&#x9;&#x9;c0.6-2,1.4-4,2.1-6c0.8-2,1.5-4,2.3-6.1c-1.1,2.1-2.1,4.2-3.1,6.1c-1,1.9-2,3.7-2.8,5.5c-1.7,3.4-3.2,6.3-4.6,8.5&#xA;&#x9;&#x9;c-0.9,1.4-1.6,3.1-2.4,4.9c-0.8,1.8-1.7,3.8-2.6,5.9c-0.4,1.1-0.9,2.2-1.4,3.3c-0.4,1.1-0.8,2.3-1.2,3.5c-0.8,2.4-1.7,5-2.6,7.6&#xA;&#x9;&#x9;c-0.4,1.9-0.6,4-1,6.2c-0.3,2.2-0.7,4.6-1,7.1c-0.4,2.4-0.6,5-0.9,7.5c-0.3,2.5-0.6,5-0.9,7.5c1.1-5.1,1.1-5.1,1.7-12.2&#xA;&#x9;&#x9;c-0.3,3.5-0.7,8.9-1.1,13.3c-0.1,4.4-0.3,8-0.3,8c0.4-0.8,0.8-3.2,1.3-6.7c0.6-3.5,1.4-8,2.2-13c0.1-0.6,0.2-1.3,0.3-1.9&#xA;&#x9;&#x9;c0.1-0.6,0.3-1.3,0.4-1.9c0.3-1.3,0.5-2.6,0.8-4c0.5-2.7,1-5.4,1.6-8.1c0.6-2.7,1.3-5.3,1.9-7.9c0.3-1.3,0.6-2.6,0.9-3.8&#xA;&#x9;&#x9;c0.3-1.2,0.7-2.4,1-3.6c-2.5,11.3-5.2,27.4-5.8,40.6c0.2-1,0.5-2.1,0.7-3.2c-1.7,11.1-2.7,22.5-3,34c-0.7,1.2-1.3,3.3-1.9,6.2&#xA;&#x9;&#x9;c-0.7,3.3-1.4,7.6-1.7,12.9c-0.2,2.6-0.3,5.5-0.5,8.5c0,3.1,0.1,6.3,0.1,9.8c0.1,1.7,0.1,3.5,0.2,5.3c0.2,1.8,0.3,3.7,0.5,5.6&#xA;&#x9;&#x9;c0.3,3.8,0.7,7.8,1.4,12c2.3,16.5,7.1,35.4,14.9,54.8c1,2.4,2,4.8,3,7.3c1.1,2.4,2.3,4.8,3.4,7.2c2.2,4.9,4.9,9.6,7.6,14.5&#xA;&#x9;&#x9;c1.3,2.4,2.8,4.8,4.2,7.1c1.5,2.4,3,4.7,4.4,7.1c1.6,2.3,3.2,4.6,4.8,6.9c1.6,2.3,3.2,4.6,5,6.8c14.1,18.6,30.3,35.8,48.7,50.5&#xA;&#x9;&#x9;c2.3,1.8,4.6,3.7,6.9,5.5l7.2,5.2l3.6,2.6l3.7,2.4c2.5,1.6,5,3.2,7.4,4.9c10.1,6.1,20.5,12,31.4,16.8c5.4,2.6,11,4.7,16.5,7&#xA;&#x9;&#x9;l2.1,0.8l2.1,0.7l4.3,1.5l4.3,1.5c1.4,0.5,2.8,1,4.3,1.4c5.8,1.7,11.6,3.5,17.5,4.8c3,0.7,5.9,1.4,8.9,2.1c3,0.6,6,1.1,9,1.7&#xA;&#x9;&#x9;l4.5,0.8l4.5,0.6c3,0.4,6.1,0.8,9.1,1.2c3,0.3,6.1,0.5,9.2,0.8c3.1,0.2,6.1,0.6,9.2,0.6c3.1,0.1,6.2,0.2,9.3,0.3&#xA;&#x9;&#x9;c0.8,0,1.5,0.1,2.3,0.1l2.3,0l4.7-0.1l4.7-0.1c1.6,0,3.1,0,4.7-0.2c3.1-0.2,6.2-0.4,9.4-0.7c35.4-3,71.2-12.7,104.6-29.6&#xA;&#x9;&#x9;c3-1.6,6.1-3.1,9.2-4.9c1.7-1,3.5-2,5.2-3.1c0.9-0.5,1.8-1,2.6-1.5l1.3-0.8l1.3-0.8c3.4-2.3,6.9-4.5,10.4-6.8&#xA;&#x9;&#x9;c3.4-2.5,6.8-4.9,10.2-7.4c3.3-2.6,6.6-5.3,9.9-7.9c13-10.8,24.8-22.8,35.1-34.9c10.3-12.1,19-24.3,25.9-35.4&#xA;&#x9;&#x9;c0.9-1.4,1.7-2.7,2.6-4.1c0.8-1.4,1.6-2.7,2.3-4c1.5-2.6,3-5.1,4.4-7.5c2.6-4.9,5-9.3,7-13.1c2.9-5.9,6-11.7,8.5-17.8&#xA;&#x9;&#x9;c0.7-1.5,1.3-3,2-4.5l1-2.2c0.3-0.8,0.6-1.5,0.9-2.3c1.2-3,2.3-6.1,3.5-9.1c0.7-1.7,1.2-3.4,1.8-5.1c0.6-1.7,1.1-3.5,1.7-5.2&#xA;&#x9;&#x9;c0.6-1.7,1.1-3.4,1.7-5.2c0.5-1.7,1-3.5,1.4-5.2l1.4-5.2c0.5-1.7,1-3.5,1.3-5.3c0.8-3.5,1.6-7.1,2.3-10.6c0.4-1.8,0.7-3.5,1-5.3&#xA;&#x9;&#x9;l0.9-5.3l0.9-5.3l0.6-5.4l0.6-5.4l0.3-2.7c0.1-0.9,0.2-1.8,0.2-2.7c0.2-3.6,0.5-7.2,0.7-10.7C577.2,300.3,577.1,299.3,577.1,298.3z&#xA;&#x9;&#x9; M107.2,102.2c-1.5,1.6-3,3.1-4.4,4.6C104.2,105.2,105.7,103.7,107.2,102.2z" />
      </g>
      <title />
      
    </svg>
  </g>
  <g data-refid="icon" fill="#ffffff" data-box="106.81 81.89 86.23 106.61 " transform="matrix(1.1110953662352299 0 0 1.1110953662352299 94.36976092800106 79.11019702226224)" data-mask="0">
    <svg xmlns="http://www.w3.org/2000/svg" xmlns:xlink="http://www.w3.org/1999/xlink" version="1.1" x="0px" y="0px" viewBox="0 0 100 100" enable-background="new 0 0 100 100" xml:space="preserve" width="100" height="100" id="FLDSRC_ICON">
      <path d="M85.897,49.011h-0.148c-1.605,0-2.907-1.301-2.907-2.907c0-1.606,1.301-2.907,2.907-2.907s2.907-1.301,2.907-2.907  c0-1.605-1.301-2.907-2.907-2.907H74.036c-1.605,0-2.907-1.301-2.907-2.907s1.301-2.907,2.907-2.907h0.847  c1.605,0,2.907-1.301,2.907-2.907c0-1.606-1.301-2.907-2.907-2.907h-3.219c-1.606,0-2.907-1.301-2.907-2.907  c0-1.605,1.301-2.907,2.907-2.907h2.372c1.606,0,2.907-1.301,2.907-2.907s-1.301-2.907-2.907-2.907H60.912  c-1.605,0-2.907-1.301-2.907-2.907s1.301-2.907,2.907-2.907s2.907-1.301,2.907-2.907c0-1.605-1.301-2.907-2.907-2.907H38.689  c-1.605,0-2.907,1.301-2.907,2.907c0,1.606,1.301,2.907,2.907,2.907h-0.11c1.605,0,2.907,1.301,2.907,2.907  s-1.301,2.907-2.907,2.907H26.012c-1.606,0-2.907,1.301-2.907,2.907s1.301,2.907,2.907,2.907h10.372  c1.605,0,2.907,1.301,2.907,2.907c0,1.606-1.301,2.907-2.907,2.907H23.482c-1.605,0-2.907,1.301-2.907,2.907  c0,1.605,1.301,2.907,2.907,2.907h10.883c1.605,0,2.907,1.301,2.907,2.907s-1.301,2.907-2.907,2.907h-7.676  c-1.605,0-2.907,1.301-2.907,2.907c0,1.606,1.301,2.907,2.907,2.907h-1.252c1.605,0,2.907,1.301,2.907,2.907  c0,1.605-1.301,2.907-2.907,2.907H14.103c-1.606,0-2.907,1.301-2.907,2.907s1.301,2.907,2.907,2.907h9.679  c1.605,0,2.907,1.301,2.907,2.907c0,1.606-1.301,2.907-2.907,2.907h-0.53c-1.605,0-2.907,1.301-2.907,2.907  c0,1.605,1.301,2.907,2.907,2.907h8.715c1.605,0,2.907,1.301,2.907,2.907s-1.301,2.907-2.907,2.907h-14.38  c-1.605,0-2.907,1.301-2.907,2.907s1.301,2.907,2.907,2.907h29.46l-1.018,20.369h7.99l-1.018-20.369h29.166  c1.605,0,2.907-1.301,2.907-2.907s-1.301-2.907-2.907-2.907h-5.224c-1.606,0-2.907-1.301-2.907-2.907s1.301-2.907,2.907-2.907h0.847  c1.605,0,2.907-1.301,2.907-2.907c0-1.606-1.301-2.907-2.907-2.907h-9.032c-1.605,0-2.907-1.301-2.907-2.907  c0-1.605,1.301-2.907,2.907-2.907h17.139c1.605,0,2.907-1.301,2.907-2.907S87.502,49.011,85.897,49.011z" />
    </svg>
  </g>
  <path data-refid="title" fill="#40a4dd" d="M 4.35 0L 4.35-10.18L 0.34-10.18L 0.34-11.34L 9.57-11.34L 9.57-10.18L 5.58-10.18L 5.58 0L 4.35 0ZM 15.061000000000002-8.64Q 16.661-8.64  17.491-7.74Q 18.331000000000003-6.85  18.331000000000003-5.03L 18.331000000000003-5.03L 18.331000000000003 0L 17.101000000000003 0L 17.101000000000003-5.03Q 17.101000000000003-6.22  16.551000000000002-6.87Q 16.001-7.51  14.931000000000001-7.51L 14.931000000000001-7.51Q 13.741000000000001-7.51  12.491000000000001-6.83L 12.491000000000001-6.83L 12.491000000000001 0L 11.271 0L 11.271-12.24L 12.491000000000001-12.24L 12.491000000000001-7.92Q 13.121000000000002-8.26  13.791-8.45Q 14.471-8.64  15.061000000000002-8.64L 15.061000000000002-8.64ZM 24.346-8.64Q 26.286-8.64  27.186-7.38Q 28.086-6.12  28.046-4.03L 28.046-4.03L 21.866-4.03Q 21.866-2.5  22.576-1.68Q 23.286-0.87  24.616-0.87L 24.616-0.87Q 26.316-0.87  27.526-1.6L 27.526-1.6L 27.526-0.34Q 26.286 0.26  24.546 0.26L 24.546 0.26Q 22.695999999999998 0.26  21.656-0.89Q 20.626-2.04  20.626-4.25L 20.626-4.25Q 20.626-6.41  21.596-7.52Q 22.576-8.64  24.346-8.64L 24.346-8.64ZM 24.346-7.51Q 23.226-7.51  22.646-7Q 22.066-6.48  21.916-5.15L 21.916-5.15L 26.756-5.15Q 26.676000000000002-6.34  26.086-6.93Q 25.496-7.51  24.346-7.51L 24.346-7.51ZM 43.195 0L 41.835-3.54L 36.945-3.54L 35.585 0L 34.255 0L 38.775-11.34L 40.004999999999995-11.34L 44.504999999999995 0L 43.195 0ZM 37.405-4.71L 41.375-4.71L 39.385-9.89L 37.405-4.71ZM 55.135999999999996-8.64Q 56.916-8.64  57.705999999999996-7.85Q 58.495999999999995-7.07  58.495999999999995-5.53L 58.495999999999995-5.53L 58.495999999999995 0L 57.275999999999996 0L 57.275999999999996-5.53Q 57.275999999999996-7.53  54.995999999999995-7.53L 54.995999999999995-7.53Q 53.906-7.53  52.93599999999999-6.95L 52.93599999999999-6.95Q 53.156-6.36  53.156-5.53L 53.156-5.53L 53.156 0L 51.93599999999999 0L 51.93599999999999-5.53Q 51.93599999999999-7.53  49.656-7.53L 49.656-7.53Q 48.605999999999995-7.53  47.425999999999995-7.19L 47.425999999999995-7.19L 47.425999999999995 0L 46.205999999999996 0L 46.205999999999996-7.8Q 47.855999999999995-8.64  49.796-8.64L 49.796-8.64Q 51.446-8.64  52.275999999999996-7.94L 52.275999999999996-7.94Q 53.54599999999999-8.64  55.135999999999996-8.64L 55.135999999999996-8.64ZM 61.217000000000006-10L 61.217000000000006-11.34L 62.577000000000005-11.34L 62.577000000000005-10L 61.217000000000006-10ZM 61.287000000000006 0L 61.287000000000006-8.48L 62.507000000000005-8.48L 62.507000000000005 0L 61.287000000000006 0ZM 72.117 0L 70.48700000000001 0L 66.51700000000001-4.01L 66.51700000000001 0L 65.29700000000001 0L 65.29700000000001-11.71L 66.51700000000001-11.71L 66.51700000000001-5.34L 69.977-8.48L 71.507-8.48L 67.337-4.81L 72.117 0ZM 80.804 0L 79.17399999999999 0L 75.204-4.01L 75.204 0L 73.984 0L 73.984-11.71L 75.204-11.71L 75.204-5.34L 78.664-8.48L 80.19399999999999-8.48L 76.024-4.81L 80.804 0ZM 86.29100000000001-8.64Q 87.721-8.64  88.54100000000001-7.94Q 89.37100000000001-7.24  89.37100000000001-5.92L 89.37100000000001-5.92L 89.37100000000001-1.8Q 89.37100000000001-0.58  88.37100000000001-0.16Q 87.361 0.26  85.59100000000001 0.26L 85.59100000000001 0.26Q 84.251 0.26  83.29100000000001-0.34Q 82.331-0.94  82.331-2.33L 82.331-2.33Q 82.331-3.84  83.161-4.53Q 84.001-5.22  85.46100000000001-5.22L 85.46100000000001-5.22Q 87.111-5.22  88.131-4.62L 88.131-4.62L 88.131-5.63Q 88.131-7.53  85.90100000000001-7.53L 85.90100000000001-7.53Q 85.171-7.53  84.421-7.33Q 83.671-7.12  83.161-6.72L 83.161-6.72L 83.161-7.94Q 83.671-8.26  84.551-8.45Q 85.421-8.64  86.29100000000001-8.64L 86.29100000000001-8.64ZM 85.881-0.83Q 87.07100000000001-0.83  87.60100000000001-1.01Q 88.131-1.19  88.131-1.73L 88.131-1.73L 88.131-3.64Q 87.671-3.86  87.061-3.99Q 86.441-4.11  85.781-4.11L 85.781-4.11Q 84.71100000000001-4.11  84.131-3.71Q 83.551-3.3  83.551-2.52L 83.551-2.52Q 83.551-1.63  84.23100000000001-1.23Q 84.911-0.83  85.881-0.83L 85.881-0.83ZM 106.22900000000001-11.34L 107.55900000000001-11.34L 107.55900000000001 0L 106.339 0L 106.339-9.35L 102.209-3.55L 98.32900000000001-9.32L 98.32900000000001 0L 97.10900000000001 0L 97.10900000000001-11.34L 98.429-11.34L 102.269-5.44L 106.22900000000001-11.34ZM 113.66399999999999-8.64Q 115.60399999999998-8.64  116.50399999999999-7.38Q 117.404-6.12  117.36399999999999-4.03L 117.36399999999999-4.03L 111.184-4.03Q 111.184-2.5  111.89399999999999-1.68Q 112.60399999999998-0.87  113.934-0.87L 113.934-0.87Q 115.63399999999999-0.87  116.844-1.6L 116.844-1.6L 116.844-0.34Q 115.60399999999998 0.26  113.86399999999999 0.26L 113.86399999999999 0.26Q 112.014 0.26  110.97399999999999-0.89Q 109.94399999999999-2.04  109.94399999999999-4.25L 109.94399999999999-4.25Q 109.94399999999999-6.41  110.91399999999999-7.52Q 111.89399999999999-8.64  113.66399999999999-8.64L 113.66399999999999-8.64ZM 113.66399999999999-7.51Q 112.544-7.51  111.96399999999998-7Q 111.38399999999999-6.48  111.234-5.15L 111.234-5.15L 116.07399999999998-5.15Q 115.99399999999999-6.34  115.404-6.93Q 114.814-7.51  113.66399999999999-7.51L 113.66399999999999-7.51ZM 122.33300000000001 0.14Q 121.39300000000001 0.14  120.80300000000001-0.43Q 120.20300000000002-1  120.20300000000002-2.06L 120.20300000000002-2.06L 120.20300000000002-7.36L 118.73300000000002-7.36L 118.73300000000002-8.48L 120.20300000000002-8.48L 120.20300000000002-10.88L 121.433-10.88L 121.433-8.48L 123.62300000000002-8.48L 123.62300000000002-7.36L 121.433-7.36L 121.433-2.45Q 121.433-1.7  121.67300000000002-1.36Q 121.903-1.02  122.55300000000001-1.02L 122.55300000000001-1.02Q 123.183-1.02  123.62300000000002-1.22L 123.62300000000002-1.22L 123.62300000000002-0.07Q 123.38300000000001 0.02  123.02300000000001 0.08Q 122.653 0.14  122.33300000000001 0.14L 122.33300000000001 0.14ZM 129.62399999999997-8.64Q 131.224-8.64  132.05399999999997-7.74Q 132.89399999999998-6.85  132.89399999999998-5.03L 132.89399999999998-5.03L 132.89399999999998 0L 131.664 0L 131.664-5.03Q 131.664-6.22  131.11399999999998-6.87Q 130.56399999999996-7.51  129.49399999999997-7.51L 129.49399999999997-7.51Q 128.30399999999997-7.51  127.05399999999997-6.83L 127.05399999999997-6.83L 127.05399999999997 0L 125.83399999999997 0L 125.83399999999997-12.24L 127.05399999999997-12.24L 127.05399999999997-7.92Q 127.68399999999997-8.26  128.35399999999998-8.45Q 129.03399999999996-8.64  129.62399999999997-8.64L 129.62399999999997-8.64ZM 139.09899999999996 0.26Q 137.13899999999995 0.26  136.15899999999996-0.9Q 135.18899999999996-2.06  135.18899999999996-4.22L 135.18899999999996-4.22Q 135.18899999999996-6.41  136.17899999999997-7.52Q 137.16899999999995-8.64  139.05899999999997-8.64L 139.05899999999997-8.64Q 141.04899999999998-8.64  142.01899999999998-7.45Q 142.98899999999998-6.27  142.98899999999998-4.22L 142.98899999999998-4.22Q 142.98899999999998-2.11  141.96899999999997-0.93Q 140.94899999999996 0.26  139.09899999999996 0.26L 139.09899999999996 0.26ZM 139.07899999999998-0.87Q 141.75899999999996-0.87  141.75899999999996-4.22L 141.75899999999996-4.22Q 141.75899999999996-5.81  141.13899999999995-6.66Q 140.50899999999996-7.51  139.07899999999998-7.51L 139.07899999999998-7.51Q 136.40899999999996-7.51  136.40899999999996-4.22L 136.40899999999996-4.22Q 136.40899999999996-0.87  139.07899999999998-0.87L 139.07899999999998-0.87ZM 151.01199999999997-12.07L 152.23199999999997-12.07L 152.23199999999997-1.46Q 152.23199999999997-0.6  151.14199999999997-0.17Q 150.04199999999997 0.26  148.75199999999998 0.26L 148.75199999999998 0.26Q 147.18199999999996 0.26  146.03199999999998-0.76Q 144.87199999999996-1.77  144.86199999999997-4.35L 144.86199999999997-4.35Q 144.86199999999997-6.36  145.83199999999997-7.49Q 146.81199999999995-8.62  148.73199999999997-8.62L 148.73199999999997-8.62Q 149.17199999999997-8.62  149.83199999999997-8.47Q 150.48199999999997-8.33  151.01199999999997-8.13L 151.01199999999997-8.13L 151.01199999999997-12.07ZM 151.01199999999997-1.58L 151.01199999999997-6.9Q 150.50199999999998-7.19  149.90199999999996-7.34Q 149.29199999999997-7.5  148.73199999999997-7.5L 148.73199999999997-7.5Q 147.41199999999998-7.5  146.78199999999998-6.66Q 146.15199999999996-5.81  146.15199999999996-4.35L 146.15199999999996-4.35Q 146.15199999999996-2.75  146.73199999999997-1.81Q 147.30199999999996-0.87  148.82199999999997-0.87L 148.82199999999997-0.87Q 149.72199999999998-0.87  150.36199999999997-1.07Q 151.01199999999997-1.28  151.01199999999997-1.58L 151.01199999999997-1.58Z" data-box="57.04 236.85 185.92 15.30 " transform="matrix(1.2240000000000002 0 0 1.224 56.62593704152106 251.83175971984863)" />
</svg>