<?xml version="1.0"?>
<svg xmlns="http://www.w3.org/2000/svg" id="Layer_1" data-name="Layer 1" viewBox="0 0 64 64"><title>Dusk Part 4</title><circle cx="33" cy="33" r="24" style="fill:#85cbf8;"/><path d="M30.85,5.08A28,28,0,0,0,5.08,30.85a2,2,0,0,0,2,2.15H33V7.08A2,2,0,0,0,30.85,5.08Z" style="fill:#72caaf;"/><polygon points="42.5 11.42 48.32 15.14 52.55 20.34 32.64 33.3 42.5 11.42" style="fill:#f9e3ae;"/><polygon points="33 9 39.83 10 45.83 13 33 33 33 9" style="fill:#ed7899;"/><path d="M50.84,21.46a1,1,0,0,0-1.38-.3l-1.75,1.13A1,1,0,1,0,48.8,24l1.75-1.13A1,1,0,0,0,50.84,21.46Z" style="fill:#8d6c9f;"/><path d="M34,8V7.08a3,3,0,0,0-3.23-3A29.16,29.16,0,0,0,4.08,30.77a3,3,0,0,0,3,3.23H8A25,25,0,1,0,34,8ZM44.68,13.2,34,29.63V10A22.84,22.84,0,0,1,44.68,13.2ZM6.34,31.68a1,1,0,0,1-.27-.75A27.15,27.15,0,0,1,30.92,6.08a1,1,0,0,1,1.08,1V32H7.08A1,1,0,0,1,6.34,31.68ZM33,56A23,23,0,0,1,10,34H33a1,1,0,0,0,.25,0l.08,0h0l.07,0,.09,0,0,0,12.28-7.95a1,1,0,0,0-1.09-1.68l-8.35,5.4,10-15.32A23,23,0,0,1,33,56Z" style="fill:#8d6c9f;"/><path d="M33,48a1,1,0,0,0-1,1v2a1,1,0,0,0,2,0V49A1,1,0,0,0,33,48Z" style="fill:#8d6c9f;"/><path d="M29.12,47.49a1,1,0,0,0-1.22.71l-.52,1.93a1,1,0,1,0,1.93.52l.52-1.93A1,1,0,0,0,29.12,47.49Z" style="fill:#8d6c9f;"/><path d="M25.5,46a1,1,0,0,0-1.37.37l-1,1.73a1,1,0,0,0,1.73,1l1-1.73A1,1,0,0,0,25.5,46Z" style="fill:#8d6c9f;"/><path d="M21,43.61,19.56,45A1,1,0,1,0,21,46.44L22.39,45A1,1,0,0,0,21,43.61Z" style="fill:#8d6c9f;"/><path d="M20,40.5a1,1,0,0,0-1.37-.37l-1.73,1a1,1,0,0,0,1,1.73l1.73-1A1,1,0,0,0,20,40.5Z" style="fill:#8d6c9f;"/><path d="M25.33,9.2a25,25,0,0,0-11.76,8.07,1,1,0,0,0,1.55,1.26A23,23,0,0,1,25.94,11.1a1,1,0,1,0-.61-1.9Z" style="fill:#8d6c9f;"/></svg>
